<?xml version="1.0" encoding="UTF-8" standalone="no"?>
<!-- Generator: Adobe Illustrator 19.0.0, SVG Export Plug-In . SVG Version: 6.00 Build 0)  -->

<svg
   version="1.1"
   id="Layer_1"
   x="0px"
   y="0px"
   viewBox="0 0 405 396.01093"
   xml:space="preserve"
   sodipodi:docname="github.svg"
   inkscape:export-filename="/home/kkempfer/.local/share/gdlauncher_carbon/data/instances/Create Survive &amp; Explore/instance/kubejs/assets/kubejs/textures/modpack/github.png"
   inkscape:export-xdpi="196.608"
   inkscape:export-ydpi="196.608"
   inkscape:version="1.1.2 (0a00cf5339, 2022-02-04)"
   width="405"
   height="396.01093"
   xmlns:inkscape="http://www.inkscape.org/namespaces/inkscape"
   xmlns:sodipodi="http://sodipodi.sourceforge.net/DTD/sodipodi-0.dtd"
   xmlns="http://www.w3.org/2000/svg"
   xmlns:svg="http://www.w3.org/2000/svg"><defs
   id="defs16" /><sodipodi:namedview
   id="namedview14"
   pagecolor="#ffffff"
   bordercolor="#666666"
   borderopacity="1.0"
   inkscape:pageshadow="2"
   inkscape:pageopacity="0.0"
   inkscape:pagecheckerboard="0"
   showgrid="false"
   inkscape:zoom="1.746"
   inkscape:cx="132.30241"
   inkscape:cy="198.45361"
   inkscape:window-width="2544"
   inkscape:window-height="1323"
   inkscape:window-x="2568"
   inkscape:window-y="72"
   inkscape:window-maximized="0"
   inkscape:current-layer="Layer_1"
   lock-margins="true"
   fit-margin-top="20"
   fit-margin-left="20"
   fit-margin-right="20"
   fit-margin-bottom="20" />
<style
   type="text/css"
   id="style2">
	.st0{fill-rule:evenodd;clip-rule:evenodd;fill:#181616;}
	.st1{fill:#181616;}
</style>
<g
   id="XMLID_24_"
   transform="translate(-47.5,-52)">
	<path
   id="XMLID_26_"
   class="st0"
   d="M 250,72 C 149.2,72 67.5,153.7 67.5,254.5 c 0,80.6 52.3,149 124.8,173.2 9.1,1.7 12.5,-4 12.5,-8.8 0,-4.4 -0.2,-18.7 -0.2,-34 -50.8,11 -61.5,-21.5 -61.5,-21.5 -8.3,-21.1 -20.3,-26.7 -20.3,-26.7 -16.6,-11.3 1.2,-11.1 1.2,-11.1 18.3,1.3 28,18.8 28,18.8 16.3,27.9 42.7,19.8 53.1,15.2 1.6,-11.8 6.4,-19.8 11.6,-24.4 -40.5,-4.6 -83.2,-20.3 -83.2,-90.2 0,-19.9 7.1,-36.2 18.8,-49 -1.9,-4.6 -8.1,-23.2 1.8,-48.3 0,0 15.3,-4.9 50.2,18.7 14.6,-4 30.2,-6.1 45.7,-6.1 15.5,0.1 31.1,2.1 45.7,6.1 34.8,-23.6 50.1,-18.7 50.1,-18.7 9.9,25.1 3.7,43.7 1.8,48.3 11.7,12.8 18.8,29.1 18.8,49 0,70.1 -42.7,85.5 -83.3,90 6.5,5.7 12.4,16.8 12.4,33.8 0,24.4 -0.2,44.1 -0.2,50.1 0,4.9 3.3,10.5 12.5,8.8 C 380.3,403.5 432.5,335.2 432.5,254.5 432.5,153.7 350.8,72 250,72 Z" />
	<path
   id="XMLID_30_"
   class="st1"
   d="m 136.6,334 c -0.4,0.9 -1.8,1.2 -3.1,0.6 -1.3,-0.6 -2.1,-1.8 -1.6,-2.7 0.4,-0.9 1.8,-1.2 3.1,-0.6 1.3,0.6 2.1,1.8 1.6,2.7 z" />
	<path
   id="XMLID_31_"
   class="st1"
   d="m 144,342.3 c -0.9,0.8 -2.6,0.4 -3.7,-0.8 -1.2,-1.3 -1.4,-3 -0.5,-3.8 0.9,-0.8 2.5,-0.4 3.7,0.8 1.2,1.3 1.4,3 0.5,3.8 z" />
	<path
   id="XMLID_32_"
   class="st1"
   d="m 151.2,352.8 c -1.1,0.8 -2.9,0.1 -4.1,-1.6 -1.1,-1.6 -1.1,-3.6 0,-4.4 1.1,-0.8 2.9,-0.1 4.1,1.5 1.2,1.7 1.2,3.7 0,4.5 z" />
	<path
   id="XMLID_33_"
   class="st1"
   d="m 161.1,362.9 c -1,1.1 -3.1,0.8 -4.7,-0.7 -1.6,-1.5 -2,-3.6 -1,-4.7 1,-1.1 3.2,-0.8 4.7,0.7 1.6,1.6 2,3.7 1,4.7 z" />
	<path
   id="XMLID_34_"
   class="st1"
   d="m 174.7,368.8 c -0.4,1.4 -2.5,2.1 -4.6,1.5 -2.1,-0.6 -3.4,-2.3 -3,-3.7 0.4,-1.4 2.5,-2.1 4.6,-1.5 2,0.6 3.4,2.3 3,3.7 z" />
	<path
   id="XMLID_35_"
   class="st1"
   d="m 189.6,369.9 c 0.1,1.5 -1.7,2.8 -3.9,2.8 -2.2,0.1 -3.9,-1.2 -4,-2.7 0,-1.5 1.7,-2.8 3.9,-2.8 2.2,0 4,1.2 4,2.7 z" />
	<path
   id="XMLID_36_"
   class="st1"
   d="m 203.5,367.6 c 0.3,1.5 -1.2,3 -3.4,3.4 -2.1,0.4 -4.1,-0.5 -4.3,-2 -0.3,-1.5 1.3,-3 3.4,-3.4 2.1,-0.4 4,0.5 4.3,2 z" />
</g>
</svg>
